<?xml version="1.0" encoding="UTF-8"?>
<svg width="52" height="52" version="1.1" viewBox="0 0 52 52" xmlns="http://www.w3.org/2000/svg">
<path d="m22 0h8.1c1.3 0 2.4 1.1 2.4 2.4v17h8.9c1.8 0 2.7 2.2 1.4 3.5l-15 15c-0.76 0.76-2 0.76-2.8 0l-15-15c-1.3-1.3-0.38-3.5 1.4-3.5h8.9v-17c0-1.4 1.1-2.4 2.4-2.4zm30 38v11c0 1.4-1.1 2.4-2.4 2.4h-47c-1.3 0-2.4-1.1-2.4-2.4v-11c0-1.4 1.1-2.4 2.4-2.4h15l5 5c2 2 5.3 2 7.4 0l5-5h15c1.3 0 2.4 1.1 2.4 2.4zm-13 8.9c0-1.1-0.91-2-2-2s-2 0.91-2 2 0.91 2 2 2 2-0.91 2-2zm6.5 0c0-1.1-0.91-2-2-2s-2 0.91-2 2 0.91 2 2 2 2-0.91 2-2z"/>
</svg>
