<svg xmlns:rdf="http://www.w3.org/1999/02/22-rdf-syntax-ns#" xmlns="http://www.w3.org/2000/svg" xmlns:cc="http://creativecommons.org/ns#" xmlns:dc="http://purl.org/dc/elements/1.1/" xml:space="preserve" height="77.9" viewBox="0 0 589.13312 77.851898" width="589.1" version="1.1"><style>.style0{fill:	#fefffe;}.style1{clip-path:	url(#clipPath4059);}.style2{clip-path:	url(#clipPath4069);}.style3{stroke:	#000;stroke-width:	3.456;stroke-miterlimit:	10;fill:	none;}.style4{stroke:	#000;stroke-width:	3.456;stroke-miterlimit:	10;fill:	#fff;} ._text {fill:#000000; font-family: Verdana ; font-size:38px;}
</style><defs><clipPath clipPathUnits="userSpaceOnUse"><path d="m0 48.926h252.13v-49.645h-252.13v49.645z"/></clipPath><clipPath clipPathUnits="userSpaceOnUse"><path d="m0 0h252v48h-252v-48z"/></clipPath></defs><g transform="matrix(1.25 0 0 -1.25 0 77.852)">
<g><g class="style1"><g transform="translate(0 -.71848)"><g><g class="style2"><g><g transform="matrix(1,0,0,-1,0,63)"><path d="m1.727 38.953h215.84" class="style3"/></g><g transform="matrix(1,0,0,-1,0,63)"><path d="m195.97 38.953c10.801 17.3 32.4 17.3 43.2 0" class="style3"/></g><g transform="matrix(1,0,0,-1,0,63)"><path d="m195.97 38.953c10.801-17.281 32.398-17.281 43.2 0" class="style3"/></g><g transform="matrix(1,0,0,-1,0,63)"><path d="m1.727 17.355h43.203v43.199h-43.203v-43.199z" class="style4"/></g><path d="m9.676 11.6 5.2 26.8 8.547-19.344 8.8 19.3 4.703-26.75h-3.844l-2.406 15.015-7.359-16.156-7.157 16.172-2.672-15.031h-3.89z"/><g transform="matrix(1,0,0,-1,0,63)"><path d="m74.129 31.273c4.238 4.2 4.2 11.1 0 15.282-4.242 4.238-11.039 4.238-15.281 0-4.239-4.16-4.239-11.043 0-15.282 4.242-4.16 11.039-4.16 15.3 0" class="style4"/></g><g transform="matrix(1,0,0,-1,0,63)"><path d="m88.047 17.355h43.199v43.199h-43.199v-43.199z" class="style4"/></g><path d="m119.49 35.191v-4.453c-2.168 1.813-4.414 2.719-6.734 2.719-2.555 0-4.703-0.918-6.453-2.75-1.762-1.824-2.641-4.059-2.641-6.703 0-2.617 0.879-4.82 2.641-6.609 1.758-1.793 3.914-2.688 6.469-2.688 1.3 0 2.4 0.2 3.4 0.6 0.5 0.2 1 0.5 1.6 0.9 0.6 0.4 1.1 0.8 1.8 1.312v-4.515c-2.148-1.219-4.402-1.829-6.765-1.829-3.555 0-6.586 1.239-9.094 3.719-2.512 2.508-3.766 5.531-3.766 9.1 0 3.2 1 6 3.1 8.5 2.6 3 5.9 4.6 10 4.6 2.2 0 4.382-0.606 6.468-1.813z"/><g transform="matrix(1,0,0,-1,0,63)"><path d="m160.45 31.273c4.239 4.2 4.2 11.1 0 15.282-4.16 4.238-11.043 4.238-15.281 0-4.16-4.16-4.16-11.043 0-15.282 4.238-4.16 11.121-4.16 15.3 0" class="style4"/></g><g transform="matrix(1,0,0,-1,0,63)"><path d="m174.45 17.355h43.117v43.199h-43.117v-43.199z" class="style4"/></g><path d="m187.11 11.645v24.875h5.219c2.5 0 4.473-0.247 5.922-0.735 1.562-0.492 2.976-1.312 4.25-2.469 2.562-2.343 3.844-5.421 3.844-9.234 0-3.824-1.34-6.918-4.016-9.281-1.344-1.18-2.75-2-4.219-2.469-1.375-0.461-3.324-0.687-5.843-0.687h-5.157zm3.75 3.531h1.688c1.687 0 3.1 0.2 4.2 0.5 1.1 0.4 2.1 1 3 1.8 1.9 1.7 2.8 3.9 2.8 6.6 0 2.727-0.918 4.941-2.75 6.641-1.636 1.507-4.058 2.265-7.265 2.265h-1.688v-17.812z"/><g transform="matrix(1,0,0,-1,0,63)"><path d="m246.85 31.273c4.16 4.2 4.2 11.1 0 15.282-4.239 4.238-11.121 4.238-15.282 0-4.238-4.16-4.238-11.043 0-15.282 4.161-4.16 11.043-4.16 15.3 0" class="style4"/></g></g></g></g></g></g></g></g><text class="_text" x="310" y="60">{.js}</text></svg>
