<?xml version="1.0" encoding="UTF-8"?>
<svg width="52" height="52" version="1.1" viewBox="0 0 52 52" xmlns="http://www.w3.org/2000/svg">
<path d="m38 13c-3.3-3.1-7.5-4.8-12-4.7-8.1 7e-3 -15 5.6-17 13-0.14 0.56-0.64 0.96-1.2 0.96h-6c-0.79 0-1.4-0.71-1.2-1.5 2.3-12 13-21 26-21 7 0 13 2.7 18 7.2l3.7-3.7c1.6-1.6 4.3-0.46 4.3 1.8v14c0 1.4-1.1 2.5-2.5 2.5h-14c-2.2 0-3.4-2.7-1.8-4.3zm-36 17h14c2.2 0 3.4 2.7 1.8 4.3l-4.4 4.4c3.3 3.1 7.5 4.8 12 4.7 8.1-7e-3 15-5.6 17-13 0.14-0.56 0.64-0.96 1.2-0.96h6c0.79 0 1.4 0.71 1.2 1.5-2.3 12-13 21-26 21-7 0-13-2.7-18-7.2l-3.7 3.7c-1.6 1.6-4.3 0.46-4.3-1.8v-14c0-1.4 1.1-2.5 2.5-2.5z"/>
</svg>
